<svg height="300pt" preserveAspectRatio="xMidYMid meet" viewBox="0 0 300 300" width="300pt" xmlns="http://www.w3.org/2000/svg"><path d="m621 2712c-76-22-134-79-155-152-22-79-36-202-43-385-7-209 7-343 54-488 47-148 49-266 8-431-15-60-29-115-32-122-3-10 3-14 21-14 29 0 43-20 52-77 4-29 2-42-10-52-28-23-18-39 56-84 158-96 331-175 419-192l37-7 4-76c6-94 32-151 88-190 36-25 39-31 40-74v-48h103 102l13 67c16 84 43 146 78 178 21 19 38 25 75 25 43 0 51-4 79-37 29-36 61-118 75-197 7-35 8-36 55-36 26 0 68 3 94 6 47 7 47 7 43 40-5 32-2 35 38 53 70 31 126 126 137 234 3 26 10 30 90 57 183 62 301 133 377 231 45 56 60 94 42 112-19 19-12 56 23 122 31 56 34 68 25 97-22 74-59 274-59 319 0 27 11 88 26 136 57 197 36 517-52 813-29 94-50 124-109 151-62 29-217 26-363-7-200-45-311-92-400-168-53-46-54-46-129-46-71 0-77 2-116 36-46 39-182 107-293 147-81 29-332 77-395 76-24 0-68-8-98-17zm1778-309c29-149 38-331 21-446-6-48-16-87-22-87-5 0-17 17-26 38-58 125-193 272-339 370l-93 61 68 34c37 19 90 48 117 64 89 52 164 80 221 82l31 1zm-1384 62c82-29 127-52 189-101l59-46-76-38c-156-79-281-189-373-330-33-49-62-90-66-90-23 0-52 264-45 419 7 144 20 198 51 205 45 10 212-2 261-19zm1175-755c96-96 154-296 153-530 0-92-4-128-22-178-27-77-62-133-107-167-19-14-34-34-34-44 0-12-13-22-41-30-23-7-44-10-47-7s-1 6 4 6c17 0 54 75 54 108 0 23 6 34 27 44 60 29 55 85-6 80-25-2-38 4-57 27-31 37-66 46-105 25-17-8-37-13-44-10-45 17-141-47-176-116-11-22-25-37-32-34-70 30-124 38-178 28-68-12-124-47-140-85-36-87 108-170 237-138 47 12 66 9 48-9-12-12-221-24-278-16l-46 7v64c0 129-34 224-97 272-30 23-47 28-97 29-34 1-80 5-102 9-34 6-45 4-61-12-11-11-37-23-58-26l-38-6 7 112c17 264 84 463 190 566 43 42 105 52 170 27 52-20 116-86 116-119 0-31-61-101-116-133-25-14-70-34-102-43-69-21-80-48-17-43 64 5 164 57 217 114 38 39 49 47 54 34 5-14 26-16 143-15 75 1 179 4 231 8l95 6 6 30 6 30 17-43c29-69 153-169 179-143 5 5-8 20-35 39-23 16-53 40-65 53-32 35-73 123-73 155 0 57 72 114 143 114 30 0 45-8 77-40zm-1190-805c0-11 7-32 14-47 8-16 14-28 12-28-21 0-66 26-67 38-1 10-3 28-4 42-2 14-1 28 2 32 8 14 43-17 43-37zm675-69c16-11 17-16 6-29-31-38-101-28-101 13 0 31 61 41 95 16zm-574-92c13-16 11-17-20-11-42 9-43 10-35 30 7 19 31 10 55-19z" transform="matrix(.1 0 0 -.1 0 300)"/></svg>